<svg width="509" height="508" viewBox="0 0 509 508" fill="none" xmlns="http://www.w3.org/2000/svg">
<path d="M397.075 304.483C397.075 343.428 381.604 380.778 354.066 408.317C326.527 435.855 289.177 451.326 250.231 451.326C211.286 451.326 173.936 435.855 146.397 408.317C118.859 380.778 103.388 343.428 103.388 304.483C103.388 175.974 222.45 56.6738 250.231 56.6738C278.013 56.6738 397.075 175.974 397.075 304.483Z" fill="black" fill-opacity="0.51"/>
<path d="M232.769 270.431C232.769 296.783 216.1 310.515 197.844 310.515C179.588 310.515 163.554 296.148 163.554 272.494C163.554 248.841 177.286 232.807 198.796 232.807C220.307 232.807 232.769 248.92 232.769 270.431ZM185.144 271.78C185.144 284.956 189.589 294.481 198.161 294.481C206.734 294.481 210.544 285.988 210.544 271.78C210.544 259.001 207.051 249.079 197.923 249.079C188.795 249.079 185.461 259.239 185.461 271.78H185.144ZM341.513 322.818C341.513 349.171 324.844 362.903 306.588 362.903C288.331 362.903 272.456 348.536 272.298 324.882C272.139 301.228 286.029 285.194 307.54 285.194C329.051 285.194 341.513 301.625 341.513 322.818ZM294.443 324.168C294.443 337.344 298.729 346.869 307.223 346.869C315.716 346.869 319.605 338.376 319.605 324.168C319.605 311.388 316.271 301.466 307.223 301.466C298.174 301.466 294.761 311.547 294.761 324.168H294.443Z" fill="#E0E0E0"/>
<path d="M291.506 235.664L218.084 354.965" stroke="#E0E0E0" stroke-width="15.875" stroke-linecap="round" stroke-linejoin="round"/>
</svg>
