<svg width="434" height="434" viewBox="0 0 434 434" fill="none" xmlns="http://www.w3.org/2000/svg">
<path d="M63.2183 162.56C66.7907 162.56 70.2828 161.501 73.2531 159.516C76.2235 157.531 78.5385 154.71 79.9056 151.41C81.2727 148.109 81.6304 144.478 80.9335 140.974C80.2365 137.47 78.5163 134.252 75.9902 131.726C73.4642 129.2 70.2458 127.48 66.7421 126.783C63.2383 126.086 59.6066 126.443 56.3062 127.81C53.0058 129.178 50.1848 131.493 48.2001 134.463C46.2154 137.433 45.1561 140.925 45.1561 144.498C45.1561 149.288 47.0591 153.882 50.4464 157.27C53.8337 160.657 58.4279 162.56 63.2183 162.56ZM135.467 162.56H261.903C276.274 162.56 290.057 156.851 300.219 146.689C310.38 136.527 316.089 122.745 316.089 108.373C316.089 94.0021 310.38 80.2195 300.219 70.0576C290.057 59.8956 276.274 54.1866 261.903 54.1866C252.401 54.226 243.069 56.7143 234.809 61.4115C232.74 62.5915 230.924 64.1693 229.467 66.0541C228.009 67.9388 226.939 70.0933 226.318 72.3933C225.697 74.6933 225.537 77.0936 225.847 79.4557C226.158 81.8179 226.932 84.0953 228.126 86.1568C229.321 88.2114 230.91 90.01 232.802 91.4493C234.693 92.8887 236.85 93.9406 239.149 94.5447C241.448 95.1487 243.844 95.2932 246.198 94.9696C248.553 94.646 250.821 93.8609 252.872 92.6592C255.65 91.1641 258.748 90.3588 261.903 90.3111C266.693 90.3111 271.287 92.2141 274.675 95.6014C278.062 98.9887 279.965 103.583 279.965 108.373C279.965 113.164 278.062 117.758 274.675 121.145C271.287 124.533 266.693 126.436 261.903 126.436H135.467C130.677 126.436 126.083 128.339 122.695 131.726C119.308 135.113 117.405 139.707 117.405 144.498C117.405 149.288 119.308 153.882 122.695 157.27C126.083 160.657 130.677 162.56 135.467 162.56ZM63.2183 234.809H189.654C194.444 234.809 199.038 232.906 202.426 229.519C205.813 226.131 207.716 221.537 207.716 216.747C207.716 211.956 205.813 207.362 202.426 203.975C199.038 200.587 194.444 198.684 189.654 198.684H63.2183C58.4279 198.684 53.8337 200.587 50.4464 203.975C47.0591 207.362 45.1561 211.956 45.1561 216.747C45.1561 221.537 47.0591 226.131 50.4464 229.519C53.8337 232.906 58.4279 234.809 63.2183 234.809ZM370.276 162.56C373.848 162.56 377.341 161.501 380.311 159.516C383.281 157.531 385.596 154.71 386.963 151.41C388.33 148.109 388.688 144.478 387.991 140.974C387.294 137.47 385.574 134.252 383.048 131.726C380.522 129.2 377.304 127.48 373.8 126.783C370.296 126.086 366.664 126.443 363.364 127.81C360.064 129.178 357.243 131.493 355.258 134.463C353.273 137.433 352.214 140.925 352.214 144.498C352.214 149.288 354.117 153.882 357.504 157.27C360.891 160.657 365.486 162.56 370.276 162.56ZM334.152 198.684H261.903C257.112 198.684 252.518 200.587 249.131 203.975C245.744 207.362 243.841 211.956 243.841 216.747C243.841 221.537 245.744 226.131 249.131 229.519C252.518 232.906 257.112 234.809 261.903 234.809H334.152C338.942 234.809 343.536 236.712 346.924 240.099C350.311 243.487 352.214 248.081 352.214 252.871C352.214 257.662 350.311 262.256 346.924 265.643C343.536 269.03 338.942 270.933 334.152 270.933C329.361 270.933 324.767 272.836 321.38 276.224C317.992 279.611 316.089 284.205 316.089 288.996C316.089 293.786 317.992 298.38 321.38 301.767C324.767 305.155 329.361 307.058 334.152 307.058C348.523 307.058 362.305 301.349 372.467 291.187C382.629 281.025 388.338 267.242 388.338 252.871C388.338 238.5 382.629 224.717 372.467 214.555C362.305 204.393 348.523 198.684 334.152 198.684ZM225.778 270.933H153.529C148.739 270.933 144.145 272.836 140.757 276.224C137.37 279.611 135.467 284.205 135.467 288.996C135.467 293.786 137.37 298.38 140.757 301.767C144.145 305.155 148.739 307.058 153.529 307.058H225.778C230.569 307.058 235.163 308.961 238.55 312.348C241.938 315.735 243.841 320.33 243.841 325.12C243.841 329.91 241.938 334.505 238.55 337.892C235.163 341.279 230.569 343.182 225.778 343.182C222.623 343.135 219.526 342.329 216.747 340.834C214.691 339.527 212.392 338.65 209.989 338.254C207.585 337.859 205.126 337.954 202.76 338.534C200.394 339.113 198.17 340.165 196.221 341.627C194.272 343.088 192.639 344.929 191.42 347.038C190.2 349.147 189.421 351.481 189.127 353.899C188.833 356.317 189.032 358.77 189.71 361.11C190.389 363.449 191.534 365.627 193.076 367.513C194.619 369.398 196.526 370.953 198.685 372.082C206.945 376.779 216.276 379.267 225.778 379.307C240.149 379.307 253.932 373.598 264.094 363.436C274.256 353.274 279.965 339.491 279.965 325.12C279.965 310.749 274.256 296.966 264.094 286.804C253.932 276.642 240.149 270.933 225.778 270.933ZM81.2805 270.933H63.2183C58.4279 270.933 53.8337 272.836 50.4464 276.224C47.0591 279.611 45.1561 284.205 45.1561 288.996C45.1561 293.786 47.0591 298.38 50.4464 301.767C53.8337 305.155 58.4279 307.058 63.2183 307.058H81.2805C86.0709 307.058 90.6651 305.155 94.0524 301.767C97.4398 298.38 99.3427 293.786 99.3427 288.996C99.3427 284.205 97.4398 279.611 94.0524 276.224C90.6651 272.836 86.0709 270.933 81.2805 270.933Z" fill="black" fill-opacity="0.51"/>
</svg>
