<svg width="409" height="409" viewBox="0 0 409 409" fill="none" xmlns="http://www.w3.org/2000/svg">
<g clip-path="url(#clip0_139_311)">
<path fill-rule="evenodd" clip-rule="evenodd" d="M409.686 221.639C409.686 209.801 409.686 198.338 409.505 186.627C409.487 186.165 409.469 185.706 409.452 185.248C409.284 180.858 409.122 176.656 408.523 172.489C404.879 147.174 396.249 123.615 383.546 101.474C372.868 82.8629 359.492 66.4045 343.59 52.0821C327.694 37.7655 309.984 26.1494 290.363 17.4169C275.587 10.8402 260.322 6.07172 244.484 2.89408C240.357 2.06596 236.194 1.80042 231.956 1.53004C229.089 1.34708 226.186 1.16191 223.236 0.798706C211.399 0.798706 199.935 0.798706 188.224 0.979831C183.59 1.09659 179.192 1.23995 174.862 1.83375C154.532 4.62154 135.171 10.7244 116.711 19.5958C90.728 32.0824 68.1927 49.1282 49.286 70.9703C26.3396 97.4795 11.3168 127.876 3.76552 162.077C2.29416 168.741 1.75401 175.477 1.19727 182.42C1.06911 184.018 0.940068 185.627 0.798584 187.249C0.798584 199.353 0.798584 211.082 0.979622 223.059C1.03492 224.039 1.08358 225.007 1.13179 225.967C1.31116 229.538 1.48431 232.984 1.97035 236.399C4.05976 251.079 7.98317 265.313 13.4652 279.047C25.94 310.299 44.5895 337.243 70.0139 359.483C97.33 383.378 128.69 398.995 164.081 406.803C169.898 408.087 175.773 408.568 181.789 409.061C184.119 409.252 186.469 409.445 188.846 409.687C200.684 409.687 212.147 409.687 223.858 409.505C224.341 409.486 224.821 409.468 225.299 409.449C229.67 409.281 233.855 409.12 238.006 408.52C257.792 405.663 276.591 399.54 294.537 390.868C326.582 375.384 352.808 352.929 373.283 323.855C390.766 299.029 402.279 271.646 407.751 241.725C408.446 237.924 408.698 234.097 408.955 230.199C409.141 227.388 409.328 224.54 409.686 221.639ZM32.6126 255.387C38.8265 277.36 49.3649 296.983 63.2954 315.253C68.0431 322.085 73.6493 327.854 79.3087 333.425C85.5144 339.533 92.1373 345.304 99.255 350.426C110.879 358.79 123.257 365.801 136.453 371.367C149.163 376.728 162.271 380.573 175.948 382.677C188.618 384.626 201.184 386.034 214.104 385.128C224.536 384.397 234.777 383.145 244.993 380.998C259.393 377.974 273.097 372.918 286.133 366.365C299.295 359.748 311.432 351.418 322.576 341.608C333.068 332.371 342.529 322.303 350.727 311.005C360.28 297.839 367.997 283.701 373.76 268.472C379.633 252.955 383.483 236.921 384.734 220.445C385.354 212.277 385.974 204.056 385.221 195.673C384.277 185.147 383.25 174.685 380.879 164.421C376.255 144.397 368.527 125.643 357.24 108.379C348.282 94.6782 338.048 82.1886 325.772 71.2312C314.582 61.2433 302.475 52.699 289.354 45.6291C278.07 39.5484 266.101 34.9303 253.749 31.4303C243.54 28.5374 233.081 26.4107 222.552 25.7737C220.829 25.6694 219.106 25.5406 217.38 25.4115C210.774 24.9174 204.138 24.4212 197.373 25.2966C194.348 25.688 191.306 25.9721 188.259 26.2567C183.653 26.6868 179.039 27.1178 174.464 27.9212C154.577 31.4135 135.852 38.0203 118.191 47.8678C99.2052 58.4542 82.6555 71.8741 68.4881 88.3684C56.0416 102.859 46.0007 118.74 38.7835 136.451C28.7747 161.012 23.8169 186.326 25.4203 212.985C26.2904 227.451 28.674 241.46 32.6126 255.387Z" fill="black" fill-opacity="0.51"/>
<path fill-rule="evenodd" clip-rule="evenodd" d="M68.3093 282.072C74.6954 293.435 82.2921 303.826 91.2297 313.641C98.3626 322.193 105.582 321.64 110.999 316.968C118.097 310.848 124.887 304.327 130.686 296.913C132.738 294.29 131.974 286.371 130.136 283.822C124.824 276.453 114.976 277.213 109.678 282.829C108.601 283.97 107.485 285.073 106.369 286.177C105.781 286.757 105.194 287.338 104.612 287.924C104.539 287.997 104.47 288.069 104.403 288.137C103.57 288.995 103.183 289.392 101.861 287.767C93.6481 277.676 87.4817 266.397 82.6273 254.47C79.9905 247.991 77.9832 241.194 76.536 234.242C75.7692 230.558 75.2065 226.854 74.6325 223.076C74.3 220.887 73.9636 218.673 73.5816 216.423C74.4748 216.423 75.3645 216.43 76.2517 216.436C78.2965 216.452 80.3276 216.467 82.3559 216.4C83.0872 216.376 83.8248 216.417 84.5627 216.457C86.2014 216.547 87.8414 216.638 89.4153 216.02C95.0657 213.804 97.8068 207.963 96.6256 200.827C95.8475 196.126 90.8048 192.466 85.1038 192.465C82.4521 192.464 79.8004 192.465 77.1863 192.465C76.0148 192.465 74.8509 192.465 73.6979 192.465C76.4155 165.596 86.3278 142.039 103.469 121.202C104.189 121.948 104.888 122.686 105.576 123.414C107.059 124.981 108.495 126.499 110.005 127.939C115.503 133.184 123.299 133.425 128.156 128.59C133.399 123.371 133.431 115.834 128.09 110.157C126.606 108.58 124.996 107.12 123.373 105.649C122.631 104.976 121.886 104.3 121.149 103.61C142.734 86.3017 166.747 76.2664 194.062 73.7277C194.062 74.9924 194.068 76.2471 194.073 77.4946C194.087 80.5551 194.101 83.5725 194.03 86.5879C193.988 88.3851 194.605 89.8099 195.505 91.3049C198.287 95.9275 202.473 96.9304 207.505 96.6899C213.443 96.4059 217.997 92.037 218.018 86.0622C218.028 83.1719 218.025 80.2815 218.023 77.4306C218.021 76.1677 218.02 74.9124 218.02 73.6684C244.223 76.409 267.209 85.7045 287.703 101.813C283.962 104.439 280.248 107.039 276.555 109.624C268.373 115.353 260.295 121.009 252.247 126.708C248.844 129.117 245.439 131.524 242.034 133.93C227.949 143.885 213.864 153.841 199.929 164.001C197.996 165.41 196.028 166.773 194.059 168.137C188.346 172.094 182.627 176.055 177.757 181.151C165.09 194.407 165.329 215.104 177.633 228.283C185.905 237.145 196.21 241.102 208.445 240.446C219.101 239.874 228.161 235.692 234.348 227.404C245.213 212.85 255.678 197.998 266.142 183.146C269.506 178.372 272.87 173.598 276.247 168.834C283.727 158.28 291.165 147.697 298.61 137.103C301.919 132.393 305.23 127.682 308.547 122.97C318.084 133.945 333.993 159.587 336.629 192.465C335.41 192.465 334.192 192.471 332.975 192.478C329.937 192.495 326.904 192.511 323.874 192.424C322.205 192.377 320.77 192.812 319.456 193.671C315.628 196.172 313.607 199.476 313.776 204.334C314.059 212.459 317.842 216.423 326.044 216.423H336.697C335.537 230.123 332.395 242.795 327.458 255.049C322.463 267.446 315.871 278.852 307.023 289.435C306.399 288.77 305.793 288.12 305.199 287.483C303.911 286.103 302.676 284.78 301.424 283.472C298.324 280.235 294.818 278.543 290.034 278.555C284.659 278.568 281.506 281.511 279.584 285.492C277.788 289.212 277.594 293.688 280.311 297.395C285.662 304.697 292.398 310.769 299.085 316.737C304.56 321.624 311.496 321.192 316.196 316.644C319.98 312.981 323.779 309.233 326.941 305.047C336.565 292.306 344.872 278.763 350.78 263.835C356.6 249.127 360.56 233.859 361.528 218.172C362.28 206.002 362.322 193.714 360.356 181.434C358.144 167.619 354.504 154.318 348.938 141.601C338.597 117.974 323.143 98.1851 302.938 82.0865C284.11 67.0851 262.843 57.3138 239.474 51.9047C225.142 48.5876 210.589 48.486 195.992 48.6761C189.591 48.7596 183.326 49.9014 177.101 51.0359C176.177 51.2043 175.253 51.3726 174.331 51.5372C166.429 52.9469 158.711 55.4483 151.116 58.2511C139.511 62.5339 128.366 67.8525 118.257 74.8339C106.874 82.6956 96.2601 91.5729 87.1961 102.278C80.3017 110.42 73.9813 118.884 68.688 128.093C57.6407 147.312 50.7905 168.076 48.9315 190.08C47.6481 205.27 47.9456 220.722 51.2667 235.734C54.8413 251.892 60.1216 267.505 68.3093 282.072ZM217.664 207.611C218.743 205.982 219.83 204.339 221.214 202.859C224.935 197.56 228.67 192.354 232.386 187.174C235.859 182.332 239.316 177.513 242.729 172.663C243.695 171.291 244.693 169.939 245.694 168.582C248.31 165.037 250.949 161.461 253.095 157.42C251.716 157.343 251.081 158.075 250.48 158.767C250.216 159.071 249.959 159.368 249.648 159.585C232.748 171.416 215.851 183.252 199.002 195.157C193.081 199.341 191.519 205.748 195.187 210.731C198.21 214.837 207.399 217.754 212.43 213.862C214.676 212.124 216.161 209.881 217.664 207.611Z" fill="black" fill-opacity="0.51"/>
<path fill-rule="evenodd" clip-rule="evenodd" d="M148.152 309.14C143.923 316.983 143.55 325.51 145.309 334.509C146.492 340.4 149.195 345.318 152.813 349.429C159.051 356.518 166.872 361.531 176.605 361.683C188.579 361.869 200.555 361.843 212.532 361.817C219.588 361.801 226.645 361.786 233.701 361.814C235.835 361.822 237.845 361.49 239.826 360.878C250.795 357.493 259.16 350.721 263.388 340.102C267.964 328.61 267.488 317.069 260.457 306.3C253.872 296.215 244.768 290.173 232.631 289.976C218.498 289.745 204.361 289.808 190.224 289.871C185.594 289.892 180.964 289.913 176.334 289.923C174.943 289.926 173.578 290.126 172.143 290.477C161.293 293.129 153.35 299.5 148.152 309.14ZM222.161 313.921C220.548 313.925 218.906 313.929 217.219 313.853C215.314 313.853 213.448 313.841 211.609 313.829C207.548 313.802 203.617 313.776 199.69 313.885C197.417 313.948 195.142 313.897 192.866 313.846C188.036 313.737 183.205 313.628 178.398 314.611C174.878 315.331 170.119 319.287 169.338 322.624C168.244 327.3 170.226 331.877 173.526 334.742C176.138 337.011 179.274 337.692 182.109 337.662C187.446 337.605 192.785 337.709 198.125 337.813C209.319 338.031 220.513 338.248 231.677 336.989C237.62 336.319 241.179 331.994 241.18 325.857C241.181 319.701 237.548 315.757 231.748 314.56C228.58 313.906 225.429 313.913 222.161 313.921Z" fill="black" fill-opacity="0.51"/>
</g>
<defs>
<clipPath id="clip0_139_311">
<rect width="408.888" height="408.888" fill="white"/>
</clipPath>
</defs>
</svg>
